<?xml version="1.0" encoding="UTF-8" standalone="no"?>
<!-- Created with Inkscape (http://www.inkscape.org/) -->

<svg
   xmlns:dc="http://purl.org/dc/elements/1.1/"
   xmlns:cc="http://creativecommons.org/ns#"
   xmlns:rdf="http://www.w3.org/1999/02/22-rdf-syntax-ns#"
   xmlns:svg="http://www.w3.org/2000/svg"
   xmlns="http://www.w3.org/2000/svg"
   xmlns:sodipodi="http://sodipodi.sourceforge.net/DTD/sodipodi-0.dtd"
   xmlns:inkscape="http://www.inkscape.org/namespaces/inkscape"
   width="210mm"
   height="297mm"
   viewBox="0 0 210 297"
   version="1.1"
   id="svg8"
   inkscape:export-filename="C:\Users\User\Desktop\ccc.png"
   inkscape:export-xdpi="123.6"
   inkscape:export-ydpi="123.6"
   inkscape:version="0.92.4 (5da689c313, 2019-01-14)"
   sodipodi:docname="圖畫.svg">
  <defs
     id="defs2" />
  <sodipodi:namedview
     id="base"
     pagecolor="#ffffff"
     bordercolor="#666666"
     borderopacity="1.0"
     inkscape:pageopacity="0.0"
     inkscape:pageshadow="2"
     inkscape:zoom="0.35"
     inkscape:cx="-1257.2716"
     inkscape:cy="3870.1976"
     inkscape:document-units="mm"
     inkscape:current-layer="layer1"
     showgrid="false"
     inkscape:pagecheckerboard="true"
     showguides="true"
     inkscape:guide-bbox="true"
     inkscape:window-width="1920"
     inkscape:window-height="986"
     inkscape:window-x="-11"
     inkscape:window-y="-11"
     inkscape:window-maximized="1">
    <sodipodi:guide
       position="-1011.4643,1276.8036"
       orientation="-0.70710678,0.70710678"
       id="guide873"
       inkscape:locked="false" />
  </sodipodi:namedview>
  <metadata
     id="metadata5">
    <rdf:RDF>
      <cc:Work
         rdf:about="">
        <dc:format>image/svg+xml</dc:format>
        <dc:type
           rdf:resource="http://purl.org/dc/dcmitype/StillImage" />
        <dc:title></dc:title>
      </cc:Work>
    </rdf:RDF>
  </metadata>
  <g
     inkscape:label="圖層 1"
     inkscape:groupmode="layer"
     id="layer1">
    <rect
       style="opacity:1;fill:#0000ff;fill-opacity:1;stroke:none;stroke-width:15.65448189;stroke-miterlimit:4;stroke-dasharray:none;stroke-opacity:0.99425288"
       id="rect871"
       width="138.26094"
       height="40.429596"
       x="-413.46014"
       y="-730.73865"
       transform="matrix(0.99954793,-0.03006543,0.01405964,0.99990116,0,0)" />
    <g
       id="g846"
       transform="translate(329.22741,59.444598)"
       style="fill:#000000;stroke:none">
      <path
         d="m -3123.8457,-3360.334 a 182.85715,207.14285 0 0 0 -181.8672,207.8867 182.85715,207.14285 0 0 0 183.1856,206.3946 182.85715,207.14285 0 0 0 143.8808,-80.1856 c -0.6729,-0.1953 -2.4332,-1.1762 -5.7402,-3.2031 -1.5285,-0.9367 -3.3979,-1.6616 -1.2637,-0.9805 2.8485,1.2795 4.5142,2.1149 6.2871,2.75 -5.454,-5.8526 -29.9735,-27.5307 -9.4883,-29.9902 5.3436,-0.6415 11.0137,-1.0163 15.9336,1.6621 2.7781,2.772 2.9685,1.4319 8.7207,1.4434 0.6999,0 1.3997,0 2.0996,0 a 182.85715,207.14285 0 0 0 22.0977,-98.6367 h -182.8574 l 182.8535,-1.4922 a 182.85715,207.14285 0 0 0 -183.8418,-205.6465 z m 144.4824,332.6621 c 0.4635,0.4974 0.7731,0.867 0.9278,1.1192 a 182.85715,207.14285 0 0 0 0.455,-0.6778 c -0.4793,-0.1375 -0.9377,-0.2819 -1.3828,-0.4414 z"
         style="opacity:1;fill:#000000;fill-opacity:1;stroke:none;stroke-width:38.79307175;stroke-miterlimit:4;stroke-dasharray:none;stroke-opacity:0.99425288"
         transform="scale(0.26458333)"
         id="path833"
         inkscape:connector-curvature="0" />
      <rect
         transform="rotate(-24.383171)"
         y="-1151.0031"
         x="-385.74774"
         height="91.35508"
         width="191.54295"
         id="rect842"
         style="opacity:1;fill:#000000;fill-opacity:1;stroke:none;stroke-width:10.26399994;stroke-miterlimit:4;stroke-dasharray:none;stroke-opacity:0.99425288" />
    </g>
    <path
       style="opacity:1;fill:#000000;fill-opacity:1;stroke:none;stroke-width:10.26399994;stroke-miterlimit:4;stroke-dasharray:none;stroke-opacity:0.99425288"
       id="path848"
       sodipodi:type="arc"
       sodipodi:cx="-452.81546"
       sodipodi:cy="-706.52679"
       sodipodi:rx="88.446426"
       sodipodi:ry="84.288696"
       sodipodi:start="0"
       sodipodi:end="6.2759771"
       d="m -364.36903,-706.52679 a 88.446426,84.288696 0 0 1 -88.28705,84.28855 88.446426,84.288696 0 0 1 -88.60523,-83.98477 88.446426,84.288696 0 0 1 87.9677,-84.59125 88.446426,84.288696 0 0 1 88.92228,83.6799 l -88.44413,0.60757 z" />
    <path
       style="opacity:1;fill:#f2f2f2;fill-opacity:1;stroke:none;stroke-width:10.26399994;stroke-miterlimit:4;stroke-dasharray:none;stroke-opacity:0.99425288"
       id="path855"
       sodipodi:type="arc"
       sodipodi:cx="-452.81546"
       sodipodi:cy="-706.52679"
       sodipodi:rx="52.160713"
       sodipodi:ry="52.160713"
       sodipodi:start="0"
       sodipodi:end="6.2759771"
       d="m -400.65475,-706.52679 a 52.160713,52.160713 0 0 1 -52.06671,52.16062 52.160713,52.160713 0 0 1 -52.25437,-51.97263 52.160713,52.160713 0 0 1 51.87838,-52.34795 52.160713,52.160713 0 0 1 52.44135,51.78397 l -52.15936,0.37599 z" />
    <path
       style="opacity:1;fill:#241c1c;fill-opacity:1;stroke:none;stroke-width:10.26399994;stroke-miterlimit:4;stroke-dasharray:none;stroke-opacity:0.99425288"
       id="path861"
       sodipodi:type="arc"
       sodipodi:cx="-261.93753"
       sodipodi:cy="-692.16376"
       sodipodi:rx="58.586308"
       sodipodi:ry="58.586308"
       sodipodi:start="0"
       sodipodi:end="6.2759771"
       d="m -203.35122,-692.16376 a 58.586308,58.586308 0 0 1 -58.48074,58.58622 58.586308,58.586308 0 0 1 -58.6915,-58.37507 58.586308,58.586308 0 0 1 58.2692,-58.7966 58.586308,58.586308 0 0 1 58.90151,58.16315 l -58.58478,0.4223 z" />
    <path
       style="opacity:1;fill:#e3dbdb;fill-opacity:1;stroke:none;stroke-width:10.26399994;stroke-miterlimit:4;stroke-dasharray:none;stroke-opacity:0.99425288"
       id="path863"
       sodipodi:type="arc"
       sodipodi:cx="-261.93753"
       sodipodi:cy="-692.16376"
       sodipodi:rx="38.55357"
       sodipodi:ry="38.55357"
       sodipodi:start="0"
       sodipodi:end="6.2759771"
       d="m -223.38396,-692.16376 a 38.55357,38.55357 0 0 1 -38.4841,38.55351 38.55357,38.55357 0 0 1 -38.62279,-38.41456 38.55357,38.55357 0 0 1 38.34489,-38.69195 38.55357,38.55357 0 0 1 38.761,38.2751 l -38.55257,0.2779 z" />
    <path
       style="opacity:1;fill:#00ff00;fill-opacity:1;stroke:none;stroke-width:0.26458332;stroke-miterlimit:4;stroke-dasharray:0.26458331, 0.26458331;stroke-dashoffset:0;stroke-opacity:0.99425288"
       id="path1035"
       d="m -540.02888,-778.74016 c -10.16481,3.6236 -20.55767,6.58511 -30.89812,9.66375 -11.12149,3.50258 -22.36819,6.64038 -33.38867,10.45472 -6.81834,2.35429 -13.67152,4.56604 -20.6711,6.3143 -6.09666,1.75459 -12.06106,3.96391 -18.035,6.10225 -4.87662,1.58731 -9.63594,3.49289 -14.34624,5.51463 -3.58722,1.50175 -7.32142,2.64057 -11.02209,3.83402 -2.41684,0.8109 -4.95583,1.1552 -7.3737,1.95379 -0.35087,0.0944 -0.71004,0.16214 -1.05262,0.28316 -0.36782,0.12996 -0.71517,0.31184 -1.07273,0.46776 -0.39727,0.14668 -0.79129,0.30244 -1.19176,0.44008 -1.51799,0.52162 -3.00389,1.00007 -4.47932,1.63891 -2.08669,0.92998 -4.26529,1.61636 -6.39728,2.43109 -1.64634,1.02439 -3.51898,1.58819 -5.38522,2.06545 -1.98586,1.09389 -4.13639,1.64388 -6.39157,1.67097 -2.74724,-0.15642 -5.16773,-1.25963 -7.35676,-2.86739 -1.55988,-1.46635 -2.84962,-3.21633 -4.15727,-4.91183 -1.22616,-1.78142 -2.29997,-3.65329 -3.60238,-5.38816 -1.75654,-2.4248 -3.60828,-4.77679 -5.43287,-7.15 -1.91366,-2.3903 -3.77135,-4.87005 -6.17863,-6.78828 -1.885,-1.44015 -3.94878,-2.63292 -5.84169,-4.05847 -1.2515,-1.0355 -2.78804,-1.49394 -4.30712,-1.97451 -2.20864,-0.6051 -4.47641,-0.9026 -6.75185,-1.10593 -2.24555,-0.39793 -4.50096,-0.69823 -6.77696,-0.83767 -1.44732,-0.0588 -0.73067,-0.0352 -2.1499,-0.0714 0,0 9.03764,-6.51888 9.03764,-6.51888 v 0 c 1.42573,0.0617 0.7044,0.0251 2.16395,0.11028 2.27491,0.17946 4.51657,0.57144 6.77603,0.88013 2.34389,0.26384 4.70138,0.58854 6.96815,1.25706 1.59848,0.56224 3.16187,1.16073 4.45426,2.30466 1.91627,1.42205 3.97457,2.64964 5.85356,4.12734 2.34825,2.08338 4.26484,4.58822 6.22228,7.03072 1.86862,2.35453 3.70623,4.73157 5.53247,7.11901 1.28886,1.7362 2.38154,3.59524 3.63897,5.35006 1.22624,1.61139 2.398,3.31446 3.90544,4.66997 2.09444,1.40566 4.38226,2.32813 6.94941,2.23407 2.21345,-0.26879 4.22545,-1.05662 6.28409,-1.88148 1.84126,-0.566 3.595,-1.31157 5.33062,-2.14135 2.10642,-0.77039 4.23185,-1.49223 6.28933,-2.38948 2.61667,-1.0091 5.26383,-1.96546 7.93951,-2.80178 2.42136,-0.64267 4.88971,-1.10823 7.26884,-1.90603 3.649,-1.1838 7.33481,-2.29307 10.85646,-3.8262 4.69369,-1.95839 9.41899,-3.83264 14.26925,-5.37371 6.00707,-2.12434 11.9866,-4.38613 18.13875,-6.05107 6.89279,-1.73025 13.64411,-3.91853 20.37529,-6.19345 10.9705,-3.59672 22.07684,-6.7701 33.10335,-10.18865 10.63611,-3.19363 21.33481,-6.26047 31.69327,-10.2887 0,0 -8.79007,6.79625 -8.79007,6.79625 z"
       inkscape:connector-curvature="0" />
  </g>
</svg>
